<svg version="1.1" xmlns="http://www.w3.org/2000/svg" viewBox="0 0 512 512"><path d="M501,283c0,10.667,0,21.333,0,32c-0.61,1.852-1.437,3.663-1.794,5.562c-2.556,13.618-3.704,27.659-7.763,40.804c-10.456,33.864-28.762,63.031-55.03,87.252c-20.386,18.797-43.413,33.074-69.016,43.289c-22.965,9.163-46.678,15.504-71.459,17.363c-1.348,0.101-2.627,1.132-3.938,1.729c-17.667,0-35.333,0-53,0c-1.304-0.608-2.553-1.544-3.92-1.769c-7.478-1.23-15.01-2.138-22.476-3.427c-19.95-3.445-38.897-10.065-57.226-18.533c-34.616-15.992-63.748-39.021-87.838-68.522c-15.489-18.969-27.827-39.709-36.848-62.554c-9.488-24.028-15.755-48.654-16.94-74.525c-0.179-3.909-1.148-7.781-1.752-11.67c0-4,0-8,0-12c0.295-0.925,0.763-1.833,0.859-2.779c0.932-9.231,1.801-18.468,2.688-27.704c2.102-21.895,8.29-42.826,16.249-63.132c10.712-27.331,25.702-52.4,45.008-74.514C94.563,69.53,114.182,51.082,138.07,37.78c28.785-16.029,59.246-27.207,91.996-31.54c13.121-1.736,26.333-3.648,39.522-3.795c18.368-0.205,36.889-0.635,54.996,3.748c14.361,3.477,29.053,6.002,42.986,10.748c27.644,9.415,52.767,23.516,74.545,43.395c17.286,15.778,28.818,34.81,32.319,57.794c2.807,18.431,0.578,36.802-8.941,53.372c-2.737,4.764-1.966,7.798,0.788,11.95c18.921,28.527,30.802,59.578,32.961,94.026C499.359,279.348,500.393,281.16,501,283z M443.076,154.216c6.195-14.123,6.054-27.629,1.893-41.075c-4.17-13.475-12.388-24.339-22.988-33.677c-30.087-26.505-65.722-40.81-104.701-47.117c-15.785-2.554-31.854-3.233-48.037-2.512c-18.306,0.815-36.239,3.023-54.075,7.121c-22.972,5.278-44.63,13.731-64.957,25.542c-30.625,17.794-53.797,43.145-72.745,72.664C56.362,168.038,44.6,204.225,41.484,242.939c-2.372,29.47,0.671,58.572,9.787,87.032c9.96,31.095,26.166,58.387,48.23,82.122c23.641,25.431,51.768,44.501,84.453,56.699c20.508,7.653,41.64,12.951,63.39,14.366c23.735,1.544,47.453,0.6,70.908-4.779c19.177-4.398,37.757-10.261,55.233-19.222c27.086-13.889,49.768-33.007,67.431-57.978c20.687-29.245,30.662-62.022,31.645-97.506c0.329-11.88-1.182-23.871-2.578-35.726c-2.785-23.65-12.025-45.023-24.221-65.241c-1.8-2.984-3.434-3.606-6.686-1.124c-17.094,13.046-36.464,19.979-58.039,18.517c-10.528-0.713-20.971-3.249-31.35-5.444c-17.592-3.722-35.082-7.926-52.655-11.739c-13.396-2.907-26.682-2.339-39.748,2.046c-28.428,9.541-44.537,43.095-31.98,70.66c16.133,35.416,64.699,40.336,89.414,9.381c16.696-20.911,38.543-28.048,64.306-21.11c38.793,10.447,52.154,54.047,32.268,84.906c-8.176,12.689-18.927,23.14-30.644,32.621c-29.131,23.572-62.46,36.676-99.723,39.477c-20.868,1.568-41.418-0.489-61.625-6.593c-22.934-6.928-43.65-17.801-61.502-33.62c-29.953-26.541-47.627-59.724-52.843-99.626c-3.426-26.208-0.745-51.769,7.898-76.449c10.982-31.357,29.324-57.877,55.295-79.06c32.012-26.11,68.859-38.602,109.744-39.557c26.047-0.608,51.561,3.562,76.144,12.221c25.72,9.06,49.402,21.994,70.351,39.623C430.452,142.943,436.32,148.283,443.076,154.216z M425.411,177.043c-14.788-16.518-31.759-29.403-50.73-39.555c-16.766-8.972-34.26-16.306-53.237-19.262c-11.37-1.771-22.752-3.77-34.206-4.586c-7.672-0.547-15.473,0.953-23.228,1.267c-14.53,0.588-28.271,4.403-41.626,9.843c-28.226,11.499-50.316,30.509-67.3,55.585c-14.682,21.677-22.077,45.998-23.772,71.852c-1.185,18.068,2.036,35.771,8.273,52.907c10.416,28.614,28.508,51.046,54.206,67.132c23.705,14.838,49.723,22.099,77.775,21.38c6.289-0.161,12.708-0.399,18.805-1.768c12.175-2.734,24.535-5.306,36.156-9.697c21.134-7.986,38.834-21.435,53.828-38.282c6.897-7.749,12.699-15.917,12.002-27.426c-0.891-14.726-16.015-29.465-30.633-28.11c-10.788,1-19.574,5.844-26.661,14.581c-4.93,6.078-11.214,11.246-17.531,15.967c-8.944,6.684-19.265,10.485-30.312,12.589c-13.104,2.495-25.971,2.288-38.768-1.512c-9.805-2.911-18.54-7.723-26.656-13.979c-16.239-12.518-25.256-29.292-27.947-49.126c-1.546-11.392-0.67-22.969,2.938-34.345c4.324-13.634,11.255-25.608,21.573-35.103c16.987-15.633,37.244-24.067,60.678-23.379c9.411,0.276,18.861,0.775,28.185,2.001c7.288,0.959,14.414,3.168,21.599,4.876c8.112,1.928,16.187,4.019,24.32,5.852c9.647,2.174,19.258,5.241,29.03,5.965C398.323,193.903,412.705,188.39,425.411,177.043z"/></svg>
