<svg version="1.1" xmlns="http://www.w3.org/2000/svg" xmlns:xlink="http://www.w3.org/1999/xlink" x="0px" y="0px" viewBox="0 0 512 512" style="enable-background:new 0 0 512 512;" xml:space="preserve"><path d="M279,510.17c-7.72,0-15.45,0-23.17,0c-1.29-0.22-2.58-0.55-3.88-0.64c-19.77-1.33-39.33-3.96-58.52-9.1c-38.49-10.29-72.31-29.21-101.63-55.94c-18.71-17.06-34.15-36.94-47.28-58.7c-6.78-11.24-11.8-23.18-16.4-35.3c-9.13-24.08-14.48-49.09-15.89-74.83c-1.05-18.98,0.16-37.94,3.32-56.64c3.1-18.32,8.08-36.19,14.77-53.63c7.12-18.56,16.13-36,27.26-52.43C70.33,94.15,85.5,77.52,102.4,62.4c17.56-15.71,37.18-28.15,58.89-37.36c17.05-7.23,34.45-13.69,52.69-16.64c18.97-3.07,38.19-5.23,57.38-6.12c14.67-0.68,29.53,0.57,44.16,2.25c10.61,1.22,20.94,4.77,31.47,6.85c16.56,3.28,32.03,9.61,47.29,16.51c13.52,6.11,25.33,15.01,36.99,24c13.47,10.39,24.9,22.73,33.2,37.7c5.59,10.07,9.06,20.9,10.43,32.35c1.92,16.06,1.82,32.13-5.69,46.77c-4.11,8.02-2.94,14.05,1.71,20.92c10.06,14.87,16.83,31.45,21.37,48.63c3.68,13.91,5.72,28.39,7.08,42.74c2.03,21.44-1.2,42.66-5.11,63.72c-3.02,16.29-8.94,31.57-16.06,46.47c-7.35,15.36-17.51,28.64-28.5,41.52c-14.61,17.12-32.27,30.52-51.05,42.39c-16.55,10.47-34.85,17.39-53.59,23.1c-14.27,4.35-28.65,7.86-43.57,9.09C293.97,507.92,286.5,509.19,279,510.17z M434.48,211.31c-0.74,0.2-0.88,0.21-0.99,0.27c-1.01,0.64-2.01,1.3-3.02,1.94c-18.86,12.08-39.36,17.64-61.62,13.83c-17.8-3.05-35.4-7.3-53.11-10.89c-11.06-2.24-22.09-5.26-33.27-6.13c-16.58-1.3-31.56,3.13-42.9,16.58c-19.32,22.9-10.41,56.32,17.82,66.18c17.59,6.15,36.43,0.17,49.29-15.39c17.36-21.02,39.32-28.99,66.19-23.18c35.86,7.75,53.65,40.3,48.43,71.21c-2.78,16.49-11.83,29.55-23.11,41.11c-28.89,29.56-63.55,48.11-104.75,54.16c-27.23,4-53.93,2.27-79.97-6.59c-56.07-19.07-92.38-57.04-108.24-114.26c-1.83-6.62-3.8-13.27-4.8-20.04c-0.84-5.71-0.37-11.62-0.44-17.44c-0.4-33,7.77-63.78,24.64-92.09c23.63-39.65,57.64-66.41,101.81-79.89c25.14-7.67,50.93-9.44,77.02-6.51c44.84,5.03,84.67,21.99,119.58,50.54c3.03,2.48,5.97,5.07,8.95,7.6c0.49-0.15,0.97-0.3,1.46-0.46c-0.54-6.28-0.54-12.65-1.72-18.81c-2.63-13.74-11.2-23.93-21.28-32.94c-22-19.67-47.84-32-76.21-39.37c-31.83-8.28-64.01-8.14-96.32-3.69c-28.79,3.97-56,12.88-81,27.77c-39.41,23.48-65.9,58.17-84.48,99.38c-11.41,25.29-15.81,52.3-16.91,79.72c-0.56,13.86,0.21,28.03,2.48,41.71c9.1,54.87,36.81,98.77,81.47,131.61c37.99,27.94,80.99,41.05,128.2,40.54c36.32-0.4,70.84-8.06,102.69-25.71c42.38-23.49,70.48-58.45,82.3-105.8c5.83-23.36,5.07-46.96,1.74-70.61C451.65,246.12,444.23,228.35,434.48,211.31z M407.48,177.93c-1.01-1.06-1.78-1.97-2.65-2.77c-26.79-24.65-57.62-41-93.91-46.82c-19.89-3.19-39.88-4.63-59.47-0.34c-54.01,11.81-90.08,44.46-104.44,97.89c-12.91,48.05-0.2,90.54,37.25,123.67c31.6,27.95,69.14,36.77,110.59,27.84c20.9-4.5,40.95-11.22,57.27-25.66c8.42-7.46,16.5-15.53,23.46-24.34c6.73-8.52,5.08-18.09-2.57-26.43c-6.57-7.17-16.19-8.8-25.05-3.67c-3.61,2.09-6.99,4.93-9.76,8.06c-12.84,14.54-27.95,25.05-47.15,29.67c-36.49,8.78-70.34-5.52-89.53-32.18c-28.89-40.13-13.87-99.04,30.44-123.59c23.59-13.07,48.66-13.02,73.83-8.85c20.41,3.38,40.39,9.31,60.59,14C380.79,187.74,394.7,187.3,407.48,177.93z"/></svg>
